<svg xmlns="http://www.w3.org/2000/svg" width="464.712" height="432.592" viewBox="0 0 464.712 432.592">
  <g id="logo-instagram" transform="translate(-32 -32)">
    <path id="Path_6" data-name="Path 6" d="M361.168,68.046c53.407.148,96.662,40.414,96.822,90.13v180.24c-.16,49.716-43.415,89.981-96.822,90.13H167.544c-53.407-.148-96.662-40.414-96.822-90.13V158.176c.16-49.716,43.415-89.981,96.822-90.13H361.168m0-36.046H167.544C92.993,32,32,88.778,32,158.176v180.24c0,69.4,60.993,126.176,135.544,126.176H361.168c74.551,0,135.544-56.778,135.544-126.176V158.176C496.712,88.778,435.719,32,361.168,32Z" fill="#fff"/>
    <path id="Path_7" data-name="Path 7" d="M377.33,162.67a27.94,27.94,0,1,1,19.817-8.183,28,28,0,0,1-19.817,8.183Z" transform="translate(13.529 -2.935)" fill="#fff"/>
    <path id="Path_8" data-name="Path 8" d="M256,181.33A74.67,74.67,0,1,1,181.33,256,74.67,74.67,0,0,1,256,181.33M256,144A112,112,0,1,0,368,256,112,112,0,0,0,256,144Z" transform="translate(8.356 -7.704)" fill="#fff"/>
  </g>
</svg>
